# xmcd
#
# Track frame offsets: 
#        150
#        23652
#        34561
#        48194
#        60152
#        73346
#        92432
#        105325
#        119455
#        134843
#        147061
#        161979
#
# Disc length: 2411 seconds
#
# Revision: 0
# Processed by: cddbd v1.5.2PL0 Copyright (c) Steve Scherf et al.
# Submitted via: ExactAudioCopyFreeDBPlugin 1.0
#
DISCID=9d09690c
DTITLE=Various Artist - Gospel Christmas CD1
DYEAR=2009
DGENRE=Gospel
TTITLE0=Marva Wright - What Christmas Means To Me
TTITLE1=Marva Wright - Christmas Time Comes But Once A Year
TTITLE2=Mahalia Jackson - It Is No Secret
TTITLE3=Mahalia Jackson - Come To Jesus
TTITLE4=Mahalia Jackson - God Spoke To Me
TTITLE5=Marva Wright - My Christmas Song
TTITLE6=Mahalia Jackson - I Believe
TTITLE7=Mahalia Jackson - It's Real
TTITLE8=Mahalia Jackson - A City Called Heaven
TTITLE9=Mahalia Jackson - Nobody Knows The Trouble I've Seen
TTITLE10=Marva Wright - Jesus, Oh What A Wonderful Child
TTITLE11=Marva Wright - Silent Night
EXTD=
EXTT0=
EXTT1=
EXTT2=
EXTT3=
EXTT4=
EXTT5=
EXTT6=
EXTT7=
EXTT8=
EXTT9=
EXTT10=
EXTT11=
PLAYORDER=
